<svg xmlns="http://www.w3.org/2000/svg" xmlns:xlink="http://www.w3.org/1999/xlink" width="500" zoomAndPan="magnify" viewBox="0 0 375 374.999991" height="500" preserveAspectRatio="xMidYMid meet" version="1.0"><defs><clipPath id="08492700eb"><path d="M 13.035156 26.992188 L 361 26.992188 L 361 347.992188 L 13.035156 347.992188 Z M 13.035156 26.992188 " clip-rule="nonzero"/></clipPath></defs><rect x="-37.5" width="450" fill="#ffffff" y="-37.499999" height="449.999989" fill-opacity="1"/><rect x="-37.5" width="450" fill="#ffffff" y="-37.499999" height="449.999989" fill-opacity="1"/><rect x="-37.5" width="450" fill="#ff5757" y="-37.499999" height="449.999989" fill-opacity="1"/><g clip-path="url(#08492700eb)"><path fill="#ffffff" d="M 360.695312 97.691406 L 360.695312 38.035156 C 360.695312 31.9375 355.753906 26.992188 349.660156 26.992188 L 268.828125 26.992188 C 268.8125 26.992188 268.800781 26.996094 268.785156 26.996094 C 268.769531 26.996094 268.757812 26.992188 268.746094 26.992188 L 187.914062 26.992188 C 187.804688 26.992188 187.699219 27.007812 187.589844 27.007812 C 187.480469 27.007812 187.375 26.992188 187.265625 26.992188 L 106.433594 26.992188 C 106.265625 26.992188 106.101562 27.011719 105.933594 27.019531 C 105.765625 27.011719 105.601562 26.992188 105.433594 26.992188 L 24.601562 26.992188 C 18.507812 26.992188 13.566406 31.9375 13.566406 38.035156 L 13.566406 97.234375 C 13.503906 100.214844 13.679688 119.164062 27.238281 133.144531 C 27.691406 133.609375 28.152344 134.054688 28.621094 134.492188 L 28.621094 336.957031 C 28.621094 343.054688 33.5625 348 39.65625 348 L 329.652344 348 C 335.75 348 340.6875 343.054688 340.6875 336.957031 L 340.6875 138.589844 C 343.917969 136.523438 346.824219 134.089844 349.375 131.261719 C 361.335938 118.011719 360.972656 101.585938 360.695312 97.691406 Z M 279.863281 97.367188 L 279.863281 49.074219 L 338.621094 49.074219 L 338.621094 98.144531 C 338.621094 98.519531 338.640625 98.894531 338.679688 99.265625 C 338.691406 99.363281 339.390625 109.375 332.992188 116.464844 C 327.972656 122.027344 319.460938 124.847656 307.703125 124.847656 C 298.792969 124.847656 291.964844 122.503906 287.410156 117.875 C 279.960938 110.300781 279.859375 98.414062 279.859375 97.660156 C 279.867188 97.535156 279.863281 97.515625 279.863281 97.367188 Z M 198.949219 97.367188 L 198.949219 49.074219 L 257.707031 49.074219 L 257.707031 98.144531 C 257.707031 98.519531 257.726562 98.894531 257.765625 99.265625 C 257.777344 99.363281 258.480469 109.375 252.078125 116.464844 C 247.058594 122.027344 238.546875 124.847656 226.785156 124.847656 C 217.875 124.847656 211.046875 122.503906 206.496094 117.875 C 199.046875 110.300781 198.941406 98.414062 198.945312 97.660156 C 198.949219 97.535156 198.949219 97.515625 198.949219 97.367188 Z M 117.46875 97.367188 L 117.46875 49.074219 L 176.230469 49.074219 L 176.230469 98.144531 C 176.230469 98.515625 176.25 98.890625 176.289062 99.265625 C 176.296875 99.363281 177 109.375 170.601562 116.464844 C 165.578125 122.027344 157.070312 124.847656 145.308594 124.847656 C 136.398438 124.847656 129.570312 122.503906 125.019531 117.875 C 117.566406 110.300781 117.464844 98.414062 117.464844 97.660156 C 117.472656 97.535156 117.46875 97.515625 117.46875 97.367188 Z M 35.636719 97.367188 L 35.636719 49.074219 L 94.394531 49.074219 L 94.394531 98.144531 C 94.394531 98.515625 94.414062 98.890625 94.453125 99.265625 C 94.464844 99.363281 95.164062 109.375 88.765625 116.464844 C 83.742188 122.027344 75.234375 124.847656 63.472656 124.847656 C 54.5625 124.847656 47.738281 122.503906 43.183594 117.875 C 35.734375 110.300781 35.632812 98.414062 35.632812 97.660156 C 35.636719 97.535156 35.636719 97.515625 35.636719 97.367188 Z M 271.234375 325.917969 L 219.199219 325.917969 L 219.199219 200.3125 L 271.234375 200.3125 Z M 318.617188 325.917969 L 293.308594 325.917969 L 293.308594 197.5625 C 293.308594 186.902344 284.640625 178.230469 273.988281 178.230469 L 216.449219 178.230469 C 205.796875 178.230469 197.128906 186.902344 197.128906 197.5625 L 197.128906 325.917969 L 50.691406 325.917969 L 50.691406 145.683594 C 54.683594 146.507812 58.941406 146.929688 63.472656 146.929688 C 81.742188 146.929688 95.761719 141.660156 105.144531 131.265625 C 105.535156 130.832031 105.914062 130.394531 106.277344 129.957031 C 107.144531 131.039062 108.066406 132.105469 109.074219 133.144531 C 117.945312 142.292969 130.136719 146.929688 145.308594 146.929688 C 163.574219 146.929688 177.597656 141.660156 186.980469 131.265625 C 187.304688 130.902344 187.621094 130.539062 187.925781 130.171875 C 188.742188 131.183594 189.613281 132.175781 190.550781 133.144531 C 199.421875 142.292969 211.613281 146.929688 226.785156 146.929688 C 245.054688 146.929688 259.078125 141.660156 268.460938 131.265625 C 268.683594 131.015625 268.898438 130.761719 269.113281 130.511719 C 269.847656 131.40625 270.632812 132.285156 271.46875 133.144531 C 280.339844 142.292969 292.53125 146.929688 307.703125 146.929688 C 311.53125 146.929688 315.164062 146.6875 318.617188 146.222656 Z M 318.617188 325.917969 " fill-opacity="1" fill-rule="nonzero"/></g><path fill="#ffffff" d="M 145.027344 174.894531 L 95.53125 174.894531 C 85.515625 174.894531 77.367188 183.046875 77.367188 193.066406 L 77.367188 272.015625 C 77.367188 282.035156 85.515625 290.1875 95.53125 290.1875 L 145.027344 290.1875 C 155.042969 290.1875 163.191406 282.035156 163.191406 272.015625 L 163.191406 242.613281 C 163.191406 242.605469 163.191406 242.59375 163.191406 242.585938 L 163.191406 193.066406 C 163.191406 183.046875 155.042969 174.894531 145.027344 174.894531 Z M 99.441406 196.976562 L 141.121094 196.976562 L 141.121094 238.675781 L 99.441406 238.675781 Z M 99.441406 268.105469 L 99.441406 260.757812 L 141.121094 260.757812 L 141.121094 268.105469 Z M 99.441406 268.105469 " fill-opacity="1" fill-rule="nonzero"/></svg>